<svg width="55" height="57" viewBox="0 0 55 57" fill="none" xmlns="http://www.w3.org/2000/svg">
<path d="M40.0415 36.6131C39.0089 38.4414 37.6556 40.0093 36.0194 41.2732C34.4401 42.493 32.6662 43.3782 30.747 43.9039C28.8279 44.4296 26.8587 44.5697 24.8943 44.3205C22.8592 44.0623 20.9203 43.3962 19.1318 42.3406C17.3433 41.285 15.8095 39.9015 14.5732 38.2289C13.3799 36.6144 12.514 34.801 11.9998 32.8391C11.4856 30.8772 11.3485 28.8642 11.5922 26.8561C11.8448 24.7757 12.4965 22.7936 13.529 20.9652C14.5616 19.1369 15.915 17.569 17.5511 16.3052C19.1305 15.0853 20.9044 14.2001 22.8235 13.6744C24.7427 13.1488 26.7118 13.0086 28.6762 13.2578C30.7113 13.516 32.6503 14.1821 34.4388 15.2377C35.8579 16.0753 37.1263 17.1285 38.2086 18.3684C39.2558 19.5677 40.1132 20.9227 40.757 22.3952C41.0992 23.1777 41.0274 24.0421 40.638 24.7315C40.3822 25.1844 39.9896 25.5617 39.487 25.7914C38.2186 26.3708 36.7314 25.7892 36.1648 24.4931C35.2788 22.4659 33.8123 20.8056 31.9237 19.691C27.0161 16.7945 20.7185 18.5197 17.8851 23.5366C15.0517 28.5535 16.7394 34.9913 21.6467 37.8876C26.554 40.784 32.8522 39.059 35.6854 34.0424C36.3799 32.8127 37.9179 32.3915 39.1208 33.1014C40.3237 33.8114 40.736 35.3834 40.0415 36.6131Z" fill="white"/>
<path d="M50.5357 42.8067C48.6852 46.0833 46.2608 48.8925 43.3305 51.1558C41.9222 52.2435 40.4016 53.1966 38.8107 53.9882C37.2355 54.7722 35.5778 55.4048 33.8834 55.8691C32.1892 56.3332 30.4439 56.6325 28.6963 56.7587C26.9314 56.8863 25.1484 56.8381 23.3967 56.616C19.752 56.1537 16.2786 54.9602 13.0732 53.0683C10.3493 51.4607 7.94199 49.4157 5.91756 46.9904C3.96128 44.6462 2.40451 41.9991 1.29072 39.1224C0.779615 37.8022 1.41229 36.3082 2.70369 35.7857C3.99508 35.2632 5.45655 35.91 5.96766 37.2302C7.84121 42.0697 11.1682 46.0067 15.5881 48.6154C26.2821 54.927 40.0056 51.168 46.1798 40.2358C52.354 29.3037 48.6768 15.2746 37.9827 8.96296C27.2887 2.65128 13.5653 6.41035 7.39108 17.3425C6.27966 19.3104 5.46337 21.4187 4.96507 23.6086C4.65027 24.9917 3.29838 25.8518 1.94567 25.5301C0.592694 25.2083 -0.24869 23.8263 0.0659533 22.4435C0.676868 19.7599 1.67576 17.1785 3.03513 14.7716C4.88564 11.4951 7.31003 8.6858 10.2403 6.42252C11.6487 5.3348 13.1693 4.38175 14.7601 3.59012C16.3353 2.80614 17.993 2.17353 19.6874 1.70918C21.3816 1.2451 23.127 0.945793 24.8745 0.819627C26.6395 0.692045 28.4226 0.739901 30.1742 0.962321C33.8189 1.42461 37.2922 2.61814 40.4977 4.51002C43.7031 6.40189 46.4509 8.88011 48.6649 11.8757C49.7289 13.3154 50.6612 14.8698 51.4356 16.4961C52.2025 18.1063 52.8213 19.801 53.2755 21.5331C53.7295 23.265 54.0223 25.0492 54.1457 26.8357C54.2705 28.64 54.2237 30.4628 54.0061 32.2534C53.5539 35.9792 52.3864 39.5299 50.5357 42.8067Z" fill="white"/>
<path d="M26.7856 39.5144C28.1746 39.5144 29.3005 40.6654 29.3005 42.0853V53.8742C29.3005 55.2941 28.1746 56.4451 26.7856 56.4451C25.3966 56.4451 24.2707 55.2941 24.2707 53.8742L24.2707 42.0853C24.2707 40.6654 25.3966 39.5144 26.7856 39.5144Z" fill="white"/>
<path d="M31.9662 28.4292C31.9662 31.212 29.7594 33.4679 27.0372 33.4679C24.315 33.4679 22.1083 31.212 22.1083 28.4292C22.1083 25.6464 24.315 23.3905 27.0372 23.3905C29.7594 23.3905 31.9662 25.6464 31.9662 28.4292Z" fill="white"/>
</svg>
