<svg width="39" height="53" viewBox="0 0 39 53" fill="none" xmlns="http://www.w3.org/2000/svg">
<path d="M38.6522 21.3706C39.4583 15.9808 35.3546 13.0836 29.7429 11.1509L31.5634 3.84993L27.1187 2.74252L25.3465 9.85124C24.178 9.55984 22.9781 9.28526 21.7854 9.01306L23.5704 1.85742L19.1285 0.75L17.3071 8.04857C16.3401 7.82844 15.3904 7.61087 14.469 7.38163L14.4741 7.35866L8.34477 5.8282L7.16242 10.575C7.16242 10.575 10.46 11.3308 10.3905 11.3774C12.1904 11.8265 12.5159 13.0179 12.4618 13.9622L10.3882 22.2797C10.5121 22.3112 10.6729 22.3567 10.8502 22.428C10.702 22.3911 10.5442 22.3509 10.3804 22.3117L7.47385 33.9634C7.25389 34.5102 6.69558 35.3307 5.4372 35.0191C5.48174 35.0837 2.20672 34.213 2.20672 34.213L0 39.3003L5.78406 40.7421C6.8601 41.0119 7.91456 41.2942 8.95298 41.5597L7.11372 48.9444L11.5533 50.0518L13.3747 42.7455C14.5876 43.0747 15.7646 43.3784 16.9168 43.6646L15.1015 50.9365L19.5464 52.0439L21.3855 44.6731C28.9647 46.1073 34.6636 45.5291 37.0624 38.6743C38.9953 33.1555 36.9661 29.9722 32.9788 27.8963C35.883 27.2266 38.0705 25.3167 38.6537 21.3712L38.6524 21.3702L38.6522 21.3706ZM28.497 35.6094C27.1234 41.1283 17.8305 38.145 14.8176 37.3969L17.2584 27.6134C20.2711 28.3655 29.9326 29.8538 28.4972 35.6094H28.497ZM29.8716 21.2906C28.6186 26.3106 20.884 23.7603 18.375 23.1349L20.5878 14.2619C23.0969 14.8873 31.1769 16.0545 29.872 21.2906H29.8716Z" fill="white"/>
</svg>
