<svg width="33" height="34" viewBox="0 0 33 34" fill="none" xmlns="http://www.w3.org/2000/svg">
<path d="M32.9899 16.9765C32.9899 25.8517 25.7746 33.0498 16.9078 33.0297C8.05902 33.0086 0.894531 25.8157 0.894531 16.9628C0.896354 12.7035 2.58889 8.61947 5.5998 5.60902C8.61071 2.59856 12.6934 0.908334 16.9496 0.910158C21.2059 0.911982 25.2871 2.60571 28.2954 5.61874C31.3037 8.63178 32.9928 12.7173 32.9909 16.9765H32.9899ZM18.5245 12.0575C18.5245 10.7392 18.5245 9.42081 18.5245 8.10245C18.5245 7.44855 18.2464 6.94491 17.6702 6.63595C16.597 6.06036 15.3684 6.84016 15.3631 8.11726C15.3525 10.9825 15.3631 13.8478 15.3536 16.7131C15.3419 16.9937 15.3879 17.2738 15.4889 17.5359C15.5898 17.798 15.7435 18.0365 15.9404 18.2367C16.1117 18.4134 16.2671 18.6049 16.4299 18.789C17.7897 20.3317 19.1494 21.8737 20.5091 23.415C20.986 23.9546 21.5749 24.1408 22.2664 23.9228C22.5605 23.8267 22.8187 23.6439 23.0074 23.3985C23.196 23.1531 23.3063 22.8564 23.3237 22.5473C23.3629 21.9992 23.1123 21.5728 22.7634 21.1718C21.4449 19.6905 20.1274 18.2018 18.8332 16.6962C18.6547 16.4727 18.5521 16.198 18.5404 15.9121C18.5086 14.6244 18.5245 13.3399 18.5245 12.0575Z" fill="#23A5DC"/>
</svg>
