<svg width="55" height="55" viewBox="0 0 55 55" fill="none" xmlns="http://www.w3.org/2000/svg">
<path d="M26.254 0.936523H29.6312C29.7845 0.967208 29.9357 1.0053 30.09 1.02752C31.306 1.20633 32.5367 1.31108 33.7347 1.57031C50.1233 5.1117 59.3792 22.8938 52.8967 38.3618C47.8342 50.4461 35.1251 57.0909 22.2573 54.3949C11.5783 52.1592 3.1788 43.4247 1.33586 32.6291C1.16881 31.6451 1.06202 30.6505 0.927734 29.6602V26.2807C1.10008 25.084 1.22907 23.8788 1.45111 22.6906C3.46005 11.9236 12.4474 3.12886 23.2322 1.35235C24.2366 1.18729 25.2475 1.07407 26.254 0.936523ZM27.9458 8.74303C17.3407 8.73879 8.72345 17.36 8.72874 27.9768C8.72874 38.5724 17.3164 47.1746 27.9098 47.1978C38.5032 47.2211 47.1427 38.6094 47.1533 27.9895C47.1639 17.3695 38.5614 8.74832 27.95 8.74303H27.9458Z" fill="#23A5DC"/>
</svg>
