<svg width="290" height="46" viewBox="0 0 290 46" fill="none" xmlns="http://www.w3.org/2000/svg">
<path d="M33.0616 28.9665C32.209 30.4432 31.0916 31.7097 29.7406 32.7305C28.4366 33.7158 26.9719 34.4307 25.3873 34.8553C23.8027 35.2799 22.1768 35.3931 20.5548 35.1918C18.8745 34.9832 17.2735 34.4452 15.7968 33.5926C14.3201 32.74 13.0536 31.6226 12.0328 30.2716C11.0475 28.9676 10.3326 27.5029 9.90803 25.9183C9.48343 24.3337 9.37024 22.7078 9.57152 21.0858C9.78006 19.4055 10.3181 17.8045 11.1707 16.3278C12.0233 14.8511 13.1407 13.5846 14.4917 12.5639C15.7957 11.5786 17.2604 10.8636 18.845 10.439C20.4296 10.0144 22.0555 9.90125 23.6775 10.1025C25.3578 10.3111 26.9588 10.8491 28.4355 11.7017C29.6073 12.3782 30.6546 13.2288 31.5482 14.2304C32.4128 15.199 33.1208 16.2934 33.6524 17.4828C33.9349 18.1148 33.8756 18.813 33.5541 19.3698C33.3429 19.7356 33.0187 20.0404 32.6037 20.2259C31.5565 20.6938 30.3285 20.2241 29.8606 19.1772C29.1291 17.5399 27.9183 16.1989 26.3589 15.2986C22.3067 12.9591 17.1069 14.3525 14.7674 18.4047C12.4279 22.4568 13.8214 27.6566 17.8733 29.996C21.9252 32.3353 27.1255 30.9421 29.4648 26.8902C30.0383 25.897 31.3082 25.5567 32.3014 26.1302C33.2946 26.7036 33.635 27.9733 33.0616 28.9665Z" fill="white"/>
<path d="M41.7265 33.9691C40.1985 36.6156 38.1968 38.8846 35.7773 40.7127C34.6144 41.5912 33.3589 42.361 32.0453 43.0004C30.7447 43.6336 29.376 44.1446 27.977 44.5196C26.5781 44.8944 25.137 45.1362 23.694 45.2381C22.2368 45.3411 20.7646 45.3023 19.3182 45.1228C16.3089 44.7495 13.441 43.7854 10.7943 42.2574C8.54527 40.9589 6.55756 39.3072 4.88603 37.3482C3.27076 35.4549 1.98536 33.3168 1.06573 30.9933C0.643714 29.927 1.1661 28.7203 2.23239 28.2983C3.29867 27.8763 4.50538 28.3987 4.92739 29.4649C6.47435 33.3738 9.22135 36.5537 12.8708 38.6607C21.7007 43.7587 33.0319 40.7225 38.1298 31.8926C43.2278 23.0627 40.1916 11.7315 31.3617 6.63359C22.5318 1.53566 11.2006 4.57185 6.10269 13.4017C5.18501 14.9912 4.51101 16.694 4.09957 18.4628C3.83964 19.5799 2.72341 20.2747 1.60651 20.0149C0.489377 19.7549 -0.205339 18.6387 0.0544565 17.5218C0.558879 15.3542 1.38365 13.2693 2.50606 11.3252C4.03399 8.67876 6.03577 6.40973 8.45526 4.58168C9.61811 3.70313 10.8736 2.93336 12.1872 2.29396C13.4878 1.66074 14.8565 1.14978 16.2556 0.774724C17.6544 0.399893 19.0955 0.158142 20.5385 0.0562377C21.9958 -0.0468097 23.4681 -0.00815709 24.9143 0.171491C27.9237 0.544878 30.7915 1.50889 33.4382 3.03696C36.0849 4.56502 38.3537 6.56667 40.1817 8.98616C41.0603 10.149 41.8301 11.4045 42.4695 12.7181C43.1027 14.0187 43.6136 15.3874 43.9887 16.7865C44.3635 18.1853 44.6053 19.6264 44.7072 21.0694C44.8102 22.5267 44.7716 23.999 44.5919 25.4452C44.2185 28.4546 43.2545 31.3224 41.7265 33.9691Z" fill="white"/>
<path d="M22.1164 31.3099C23.2632 31.3099 24.1929 32.2396 24.1929 33.3864V42.9083C24.1929 44.0551 23.2632 44.9848 22.1164 44.9848C20.9695 44.9848 20.0399 44.0551 20.0399 42.9083L20.0399 33.3864C20.0399 32.2396 20.9695 31.3099 22.1164 31.3099Z" fill="white"/>
<path d="M26.394 22.3564C26.394 24.6041 24.5719 26.4262 22.3242 26.4262C20.0765 26.4262 18.2544 24.6041 18.2544 22.3564C18.2544 20.1088 20.0765 18.2867 22.3242 18.2867C24.5719 18.2867 26.394 20.1088 26.394 22.3564Z" fill="white"/>
<path d="M57.6162 38.4317V9.65822H67.8454C69.0883 9.65822 70.3313 9.7434 71.5742 9.91376C72.8508 10.0841 74.0098 10.4248 75.0512 10.9359C76.1261 11.447 76.9828 12.2136 77.621 13.2357C78.2929 14.2579 78.6288 15.6037 78.6288 17.2732C78.6288 18.3976 78.4105 19.4368 77.9738 20.3908C77.5706 21.3107 76.8148 22.0603 75.7062 22.6395C74.6312 23.2187 73.0692 23.5253 71.02 23.5594V23.7638C73.4051 23.7638 75.2359 24.1046 76.5125 24.786C77.789 25.4334 78.6624 26.2851 79.1327 27.3414C79.6366 28.3976 79.8886 29.573 79.8886 30.8678C79.8886 32.5713 79.5191 33.9342 78.78 34.9564C78.0745 35.9785 77.1507 36.7451 76.0086 37.2562C74.8664 37.7332 73.6234 38.0569 72.2797 38.2272C70.936 38.3635 69.6426 38.4317 68.3997 38.4317H57.6162ZM60.8412 22.2817H67.4927C69.0715 22.2817 70.4489 22.1795 71.6246 21.9751C72.8004 21.7707 73.7074 21.3448 74.3457 20.6974C75.0176 20.016 75.3535 18.9768 75.3535 17.5799C75.3535 15.9785 74.984 14.8201 74.2449 14.1046C73.5395 13.3891 72.582 12.9461 71.3727 12.7758C70.1969 12.5713 68.9204 12.4691 67.5431 12.4691H60.8412V22.2817ZM60.8412 35.6719H68.1477C69.693 35.6719 71.0871 35.5696 72.3301 35.3652C73.6066 35.1267 74.6144 34.6497 75.3535 33.9342C76.1261 33.1846 76.5125 32.0432 76.5125 30.51C76.5125 28.9086 76.1093 27.7161 75.3031 26.9325C74.4969 26.1148 73.4219 25.5867 72.0781 25.3482C70.7344 25.0756 69.2395 24.9393 67.5934 24.9393H60.8412V35.6719Z" fill="white"/>
<path d="M91.1814 38.4317L101.159 9.65822H106.5L116.628 38.4317H113.202L110.128 29.4368H97.6817L94.608 38.4317H91.1814ZM103.93 11.0892L98.5888 26.677H109.221L103.93 11.0892Z" fill="white"/>
<path d="M129.075 38.4317V9.65822H139.305C140.548 9.65822 141.791 9.7434 143.033 9.91376C144.31 10.0841 145.469 10.4248 146.51 10.9359C147.585 11.447 148.442 12.2136 149.08 13.2357C149.752 14.2579 150.088 15.6037 150.088 17.2732C150.088 18.3976 149.87 19.4368 149.433 20.3908C149.03 21.3107 148.274 22.0603 147.165 22.6395C146.09 23.2187 144.528 23.5253 142.479 23.5594V23.7638C144.864 23.7638 146.695 24.1046 147.972 24.786C149.248 25.4334 150.122 26.2851 150.592 27.3414C151.096 28.3976 151.348 29.573 151.348 30.8678C151.348 32.5713 150.978 33.9342 150.239 34.9564C149.534 35.9785 148.61 36.7451 147.468 37.2562C146.326 37.7332 145.083 38.0569 143.739 38.2272C142.395 38.3635 141.102 38.4317 139.859 38.4317H129.075ZM132.3 22.2817H138.952C140.531 22.2817 141.908 22.1795 143.084 21.9751C144.26 21.7707 145.167 21.3448 145.805 20.6974C146.477 20.016 146.813 18.9768 146.813 17.5799C146.813 15.9785 146.443 14.8201 145.704 14.1046C144.999 13.3891 144.041 12.9461 142.832 12.7758C141.656 12.5713 140.38 12.4691 139.002 12.4691H132.3V22.2817ZM132.3 35.6719H139.607C141.152 35.6719 142.546 35.5696 143.789 35.3652C145.066 35.1267 146.074 34.6497 146.813 33.9342C147.585 33.1846 147.972 32.0432 147.972 30.51C147.972 28.9086 147.569 27.7161 146.762 26.9325C145.956 26.1148 144.881 25.5867 143.537 25.3482C142.194 25.0756 140.699 24.9393 139.053 24.9393H132.3V35.6719Z" fill="white"/>
<path d="M170.653 38.4317V27.9035L161.028 9.65822H164.656L172.366 24.8882L180.076 9.65822H183.653L173.928 27.9035V38.4317H170.653Z" fill="white"/>
<path d="M195.868 38.4317V9.65822H199.093V35.5696H214.815V38.4317H195.868Z" fill="white"/>
<path d="M239.15 39.1472C234.648 39.1472 231.222 37.8013 228.87 35.1097C226.519 32.384 225.343 28.7213 225.343 24.1216C225.343 21.0892 225.847 18.4657 226.855 16.2511C227.896 14.0023 229.425 12.2647 231.44 11.0381C233.489 9.77747 236.059 9.14715 239.15 9.14715C243.651 9.14715 247.061 10.51 249.379 13.2357C251.697 15.9274 252.856 19.556 252.856 24.1216C252.856 27.0858 252.335 29.7093 251.294 31.9921C250.286 34.2408 248.758 35.9955 246.708 37.2562C244.659 38.5168 242.14 39.1472 239.15 39.1472ZM239.1 35.9785C242.627 35.9785 245.264 34.8882 247.011 32.7076C248.791 30.5271 249.681 27.665 249.681 24.1216C249.681 20.5782 248.808 17.7161 247.061 15.5356C245.314 13.3209 242.66 12.2136 239.1 12.2136C235.639 12.2136 233.002 13.2868 231.188 15.4333C229.408 17.5458 228.518 20.4419 228.518 24.1216C228.518 27.631 229.391 30.493 231.138 32.7076C232.885 34.8882 235.539 35.9785 239.1 35.9785Z" fill="white"/>
<path d="M286.341 9.65822H289.616V38.4317H283.519L269.41 11.1403H269.309V38.4317H266.034V9.65822H271.728L286.24 36.9495H286.341V9.65822Z" fill="white"/>
</svg>
