<svg width="10" height="11" viewBox="0 0 10 11" fill="none" xmlns="http://www.w3.org/2000/svg">
<path d="M7.7658 1.02688C7.7658 0.787944 7.86072 0.558796 8.02967 0.389845C8.19862 0.220893 8.42777 0.125977 8.6667 0.125977C8.90564 0.125977 9.13478 0.220893 9.30374 0.389845C9.47269 0.558796 9.5676 0.787944 9.5676 1.02688V10.0359C9.5676 10.2748 9.47269 10.504 9.30374 10.6729C9.13478 10.8419 8.90564 10.9368 8.6667 10.9368C8.42777 10.9368 8.19862 10.8419 8.02967 10.6729C7.86072 10.504 7.7658 10.2748 7.7658 10.0359V1.02688ZM0.558594 1.02688C0.558594 0.787944 0.65351 0.558796 0.822462 0.389845C0.991413 0.220893 1.22056 0.125977 1.45949 0.125977C1.69843 0.125977 1.92758 0.220893 2.09653 0.389845C2.26548 0.558796 2.3604 0.787944 2.3604 1.02688V10.0359C2.3604 10.2748 2.26548 10.504 2.09653 10.6729C1.92758 10.8419 1.69843 10.9368 1.45949 10.9368C1.22056 10.9368 0.991413 10.8419 0.822462 10.6729C0.65351 10.504 0.558594 10.2748 0.558594 10.0359V1.02688Z" fill="#E28937"/>
</svg>
